<svg xmlns="http://www.w3.org/2000/svg" version="1.1" width="14" height="14" viewBox="0 0 16 16">
    <title>broadcast-blue</title>
    <path fill="#0053a0" d="M15.969 6.851c-0.023-0.276-0.146-0.546-0.366-0.751-0.003-0.003-0.006-0.006-0.010-0.009l0 0c-0.001-0.001-0.003-0.003-0.004-0.004-0.224-0.209-0.507-0.314-0.79-0.318l0.001 0c-2.366-0.090-4.742 0.805-6.473 2.661-1.709 1.833-2.44 4.227-2.214 6.539l0.001 0.012c0.029 0.277 0.155 0.547 0.377 0.754 0.224 0.209 0.507 0.316 0.792 0.324l-0.002-0c0.269 0.011 0.54-0.091 0.737-0.302 0.194-0.208 0.277-0.481 0.251-0.744l-0-0.001c-0.173-1.797 0.393-3.648 1.715-5.066 1.34-1.437 3.178-2.13 4.999-2.062l0.011 0.001c0.265 0.009 0.531-0.092 0.725-0.3 0.191-0.205 0.274-0.472 0.25-0.731l-0-0.001z"/>
    <path fill="#0053a0" d="M2.518 14.954c-0.125-3.229 1.016-6.496 3.435-8.999 2.453-2.537 5.735-3.788 9.006-3.737l0.009 0c0.267 0.004 0.534-0.098 0.734-0.305 0.198-0.205 0.291-0.472 0.28-0.735l-0-0.001c-0.013-0.269-0.125-0.534-0.334-0.736-0.212-0.205-0.486-0.308-0.759-0.309h0.001c-3.81-0.060-7.623 1.392-10.472 4.34-2.811 2.908-4.135 6.704-3.989 10.45l0 0.007c0.023 0.251 0.134 0.496 0.33 0.686 0.208 0.201 0.476 0.304 0.744 0.309l-0.001-0c0.268 0.007 0.538-0.094 0.738-0.301 0.181-0.188 0.274-0.428 0.278-0.67l-0 0.001z"/>
</svg>